<svg width="103" height="118" viewBox="0 0 103 118" fill="none" xmlns="http://www.w3.org/2000/svg">
<g clip-path="url(#clip0_137_284)">
<path d="M57.7667 33.6164C59.3951 32.8051 60.295 31.3099 59.7768 30.277C59.2586 29.2442 57.5187 29.0649 55.8899 29.8767C55.2348 30.1922 54.665 30.6594 54.2282 31.2393L47.3724 34.764L49.1004 37.9356L55.6755 34.1241C56.4033 34.1238 57.1203 33.9497 57.7667 33.6164Z" fill="#FFE2B5"/>
<path d="M18.9235 115.608L22.1869 115.608L23.7393 103.061L18.9229 103.061L18.9235 115.608Z" fill="#FFE2B5"/>
<path d="M30.1043 115.534C30.2059 115.705 30.2596 116.255 30.2596 116.454C30.2596 117.063 29.7637 117.558 29.1519 117.558H19.0456C18.6283 117.558 18.29 117.22 18.29 116.805V116.385C18.29 116.385 17.79 115.125 18.8193 113.571C18.8193 113.571 20.0986 114.787 22.0102 112.882L22.5739 111.864L26.6545 114.839L28.9162 115.116C29.411 115.177 29.8498 115.107 30.1043 115.534Z" fill="#0F2620"/>
<path d="M24.048 101.812L26.9462 103.307L34.1121 92.8762L29.8347 90.6692L24.048 101.812Z" fill="#FFE2B5"/>
<path d="M34.011 106.87C34.0226 107.068 33.8163 107.582 33.7248 107.758C33.4435 108.299 32.7752 108.511 32.2319 108.231L23.2571 103.599C22.8865 103.408 22.7416 102.953 22.9334 102.584L23.1269 102.212C23.1269 102.212 23.2643 100.863 24.895 99.955C24.895 99.955 25.47 101.622 28.0464 100.806L29.0166 100.16L31.2682 104.672L33.1487 105.955C33.5601 106.235 33.9821 106.374 34.011 106.87Z" fill="#0F2620"/>
<path d="M15.6094 16.0181H24.1676L23.9809 18.7997L29.5619 36.5319L30.6083 48.3533L20.1439 50.0918L15.2606 28.1873L16.307 18.1043L15.6094 16.0181Z" fill="#235C4E"/>
<path d="M16.1326 18.2781L7.06348 22.7981L12.6445 41.5734L11.598 60.6963C11.598 60.6963 25.8994 65.2163 25.2017 52.3518C24.5041 39.4872 24.5041 37.4011 24.5041 37.4011L16.1326 18.2781Z" fill="#0F2620"/>
<path d="M30.6083 20.6203C30.6083 20.6203 32.8756 18.9735 33.9221 21.4074C34.9685 23.8412 41.7703 36.1842 41.7703 36.1842L52.4091 31.4904L54.1532 35.315C54.1532 35.315 45.4329 43.6595 40.2007 42.6165C34.9685 41.5734 30.7827 32.5334 30.7827 32.5334L30.6083 20.6203Z" fill="#0F2620"/>
<path d="M12.6445 57.2194C12.6445 57.2194 12.2957 62.7825 12.9933 67.3025C13.691 71.8224 18.3999 110.242 18.3999 110.242L24.3297 109.895L24.853 64.8686L33.2245 78.0808L25.8994 97.8992L30.9572 100.159L41.5959 78.4285L34.2709 53.7425L32.178 47.4841L16.4815 49.2226L12.6445 57.2194Z" fill="#0F2620"/>
<path d="M36.015 58.6102C36.015 58.6102 26.597 61.3917 24.5041 37.4011L24.0308 18.0574L32.8756 20.3643L31.8292 37.7488L36.015 58.6102Z" fill="#0F2620"/>
<path d="M19.9695 13.7582C23.4371 13.7582 26.2482 10.9562 26.2482 7.49974C26.2482 4.04331 23.4371 1.24132 19.9695 1.24132C16.502 1.24132 13.6909 4.04331 13.6909 7.49974C13.6909 10.9562 16.502 13.7582 19.9695 13.7582Z" fill="#FFE2B5"/>
<path d="M15.9582 13.5843C15.9582 13.5843 13.1677 10.4551 12.8189 9.06435C12.4701 7.67359 12.4701 3.849 12.8189 3.5013C13.1677 3.15361 17.0047 -0.323285 18.3999 0.0244032C19.7952 0.372092 22.5609 2.11054 25.0274 2.11054C25.725 2.11054 26.0738 5.58744 26.0738 5.58744L23.2833 5.93513C23.2833 5.93513 19.7952 4.19668 20.144 5.93513C20.4928 7.67359 17.7023 7.67359 17.7023 7.67359L18.0511 9.06435L17.0047 9.41204L16.307 8.02128C16.307 8.02128 16.6559 11.1505 17.7023 12.5412C18.7487 13.932 15.9582 13.5843 15.9582 13.5843Z" fill="#0F2620"/>
<path d="M13.1781 63.6455C14.1354 65.189 15.7103 65.9478 16.6956 65.3403C17.681 64.7329 17.7035 62.9896 16.7457 61.4457C16.3716 60.8238 15.8535 60.3001 15.2347 59.9187L11.0959 53.43L8.08252 55.4309L12.4826 61.6152C12.5484 62.3376 12.7869 63.0338 13.1781 63.6455Z" fill="#FFE2B5"/>
<path d="M8.45874 22.7981H6.71468C6.71468 22.7981 -0.261568 38.4442 0.0872425 41.5734C0.0872425 41.5734 0.0872426 44.3549 1.83131 46.441C3.57537 48.5272 10.9004 60.3486 10.9004 60.3486L14.0397 57.9148L7.76112 43.3118L11.5981 28.0135L8.45874 22.7981Z" fill="#0F2620"/>
<path d="M102.806 117.552C102.806 117.663 102.716 117.753 102.604 117.753H0.201757C0.090331 117.753 0 117.663 0 117.552C0 117.441 0.0903286 117.351 0.201757 117.351H102.604C102.716 117.351 102.806 117.441 102.806 117.552Z" fill="#E6E6E6"/>
<path d="M65.0595 44.5606C64.2356 44.5606 63.4505 44.2251 62.8856 43.6266C59.2487 39.7727 57.2457 34.7369 57.2457 29.4469C57.2457 25.0386 58.6177 20.8298 61.2135 17.2754C61.7264 16.5732 62.5224 16.1325 63.3974 16.0665C64.2861 15.9982 65.1554 16.3227 65.782 16.9537L76.3288 27.5727C77.3842 28.6354 77.4921 30.332 76.5797 31.5191L67.4654 43.3774C66.9238 44.082 66.1028 44.5119 65.2127 44.5568C65.1615 44.5593 65.1104 44.5606 65.0595 44.5606Z" fill="#235C4E"/>
<path d="M81.864 50.7539C78.6121 50.7539 75.4918 50.0355 72.5897 48.6187C71.5355 48.1041 70.7768 47.1556 70.5082 46.0161C70.2396 44.8766 70.495 43.6906 71.2091 42.7619L78.8043 32.8799C80.186 31.0823 80.0225 28.5129 78.4242 26.9033L70.6491 19.0752C69.5253 17.9436 69.0156 16.3917 69.2511 14.8173C69.4878 13.2348 70.4356 11.8906 71.8517 11.1296C75.0445 9.41362 78.6624 8.54519 82.3148 8.62328C93.3218 8.85216 102.395 17.6066 102.97 28.5534C103.277 34.4018 101.227 39.9536 97.1974 44.186C93.1651 48.4214 87.7196 50.7539 81.864 50.7539ZM81.8717 9.33682C78.4894 9.33682 79.2987 12.5349 76.3399 14.1249C75.1256 14.7774 70.1666 13.5666 69.9637 14.9232C69.7621 16.2715 70.1986 17.6007 71.1612 18.5699L78.9362 26.3981C80.7866 28.2613 80.9757 31.2356 79.3764 33.3166L71.7811 43.1987C71.1988 43.9559 70.9901 45.087 71.2091 46.0161C71.4281 46.945 72.0472 47.5542 72.9065 47.9739C75.7092 49.3421 78.7229 44.5294 81.864 44.5294C87.52 44.5294 92.7799 47.7827 96.6748 43.6917C100.567 39.6035 102.547 34.2406 102.25 28.5911C101.695 18.018 92.9314 9.56243 82.2998 9.34126C82.1572 9.33834 82.0142 9.33682 81.8717 9.33682Z" fill="#E6E6E6"/>
<path d="M83.2492 29.7732C82.8385 29.2949 82.6332 28.5948 82.6332 27.6725C82.6332 26.759 82.8385 26.0629 83.2492 25.5846C83.6598 25.1064 84.2285 24.8672 84.9547 24.8672C85.6896 24.8672 86.2647 25.1064 86.6797 25.5846C87.0948 26.0629 87.3022 26.759 87.3022 27.6725C87.3022 28.5948 87.0948 29.2949 86.6797 29.7732C86.2647 30.2516 85.6896 30.4908 84.9547 30.4908C84.2285 30.4908 83.6598 30.2516 83.2492 29.7732ZM85.694 29.0299C85.8497 28.7541 85.9274 28.3017 85.9274 27.6725C85.9274 27.0606 85.8474 26.6147 85.6875 26.3345C85.5274 26.0545 85.2832 25.9144 84.9547 25.9144C84.6348 25.9144 84.3971 26.0545 84.2414 26.3345C84.0857 26.6147 84.008 27.0606 84.008 27.6725C84.008 28.293 84.0857 28.7435 84.2414 29.0235C84.3971 29.3037 84.6348 29.4436 84.9547 29.4436C85.2919 29.4436 85.5384 29.3059 85.694 29.0299ZM85.5785 32.9702L90.2075 24.9964C90.8465 24.9964 91.2454 25.6866 90.9247 26.2376L86.2906 34.2011C85.6569 34.2011 85.2611 33.517 85.5785 32.9702ZM89.8248 33.574C89.4141 33.0957 89.2088 32.3912 89.2088 31.4603C89.2088 30.5469 89.4141 29.8531 89.8248 29.3789C90.2354 28.905 90.8083 28.668 91.5433 28.668C92.2781 28.668 92.8511 28.905 93.2618 29.3789C93.6723 29.8531 93.8778 30.5512 93.8778 31.4733C93.8778 32.3956 93.6723 33.0957 93.2618 33.574C92.8511 34.0524 92.2781 34.2916 91.5433 34.2916C90.8083 34.2916 90.2354 34.0524 89.8248 33.574ZM92.2696 32.8243C92.4252 32.5443 92.5031 32.0939 92.5031 31.4733C92.5031 30.8614 92.423 30.4155 92.2632 30.1353C92.103 29.8553 91.8632 29.7151 91.5433 29.7151C91.2146 29.7151 90.9727 29.8553 90.8171 30.1353C90.6613 30.4155 90.5836 30.8614 90.5836 31.4733C90.5836 32.0939 90.6613 32.5443 90.8171 32.8243C90.9727 33.1045 91.2146 33.2444 91.5433 33.2444C91.8718 33.2444 92.114 33.1045 92.2696 32.8243Z" fill="black"/>
</g>
<defs>
<clipPath id="clip0_137_284">
<rect width="103" height="118" fill="white"/>
</clipPath>
</defs>
</svg>
