<svg width="108" height="122" viewBox="0 0 108 122" fill="none" xmlns="http://www.w3.org/2000/svg">
<path d="M52.8542 51.0861C53.4685 50.6705 54.1729 50.4158 54.9055 50.3443L61.0562 45.6831L63.2337 48.8471L56.7566 53.2368C56.3928 53.8891 55.8765 54.4384 55.2541 54.8351C53.7102 55.852 51.9225 55.8359 51.2603 54.7997C50.5982 53.7634 51.3074 52.102 52.8482 51.0875L52.853 51.0884L52.8542 51.0861Z" fill="#FFE2B5"/>
<path d="M55.5689 49.7528L58.3147 53.2927L72.5074 42.2759L72.5198 42.2508L80.8138 26.379C81.1562 25.7233 81.3639 25.0027 81.4242 24.2615C81.4844 23.5203 81.3959 22.7743 81.1641 22.0696C80.9323 21.3649 80.5621 20.7163 80.0764 20.164C79.5907 19.6116 78.9998 19.1672 78.3401 18.8581C77.6804 18.549 76.966 18.3818 76.2408 18.3669C75.5157 18.3519 74.7952 18.4895 74.124 18.7711C73.4527 19.0528 72.8448 19.4725 72.3378 20.0044C71.8309 20.5362 71.4356 21.169 71.1763 21.8636L65.795 36.3062L55.5685 49.7473V49.7524L55.5689 49.7528Z" fill="#235C4E"/>
<path d="M78.9407 13.0424H73.1548V22.455L79.534 20.3054L78.9407 13.0424Z" fill="#FFE2B5"/>
<path d="M67.5895 9.13035C67.5897 7.40196 68.2594 5.74443 69.4513 4.52238C70.6433 3.30033 72.2598 2.61385 73.9453 2.61395C75.6308 2.61406 77.2472 3.30073 78.439 4.52293C79.6308 5.74512 80.3003 7.40273 80.3003 9.13113C80.3003 10.8595 79.6308 12.5171 78.439 13.7393C77.2472 14.9615 75.6308 15.6482 73.9453 15.6483C72.2598 15.6484 70.6433 14.9619 69.4513 13.7399C68.2594 12.5178 67.5897 10.8603 67.5895 9.13191V9.13035Z" fill="#FFE2B5"/>
<path d="M78.32 13.4239L79.0214 14.5844L81.3882 9.06571C82.6792 3.78398 76.7339 1.23113 76.7339 1.23113C74.7048 -0.897149 71.1202 2.02083 71.1202 2.02083C65.6036 1.17445 68.5478 5.68027 68.5478 5.68027C68.5478 5.68027 70.4028 5.58884 70.5079 7.12523C70.613 8.66162 72.6242 8.41032 72.6242 8.41032L74.3998 11.1342L75.1987 9.98296C78.3491 8.33937 78.3208 13.4244 78.3208 13.4244L78.32 13.4239Z" fill="black"/>
<path d="M81.2846 109.49H76.1507V116.959H81.2846V109.49Z" fill="#FFE2B5"/>
<path d="M71.1517 121.48C73.4048 121.48 76.6944 121.238 76.7195 121.236C77.599 121.317 81.993 121.671 82.2112 120.64C82.3266 119.947 82.2796 119.236 82.0739 118.566C81.6496 114.259 81.4928 114.209 81.399 114.181C81.2495 114.136 80.8129 114.349 80.1045 114.817L80.0603 114.848L80.0504 114.9C80.038 114.966 79.7243 116.547 78.2362 116.306C77.2161 116.14 76.8863 115.908 76.7799 115.795C76.8894 115.746 76.983 115.666 77.0496 115.565C77.1059 115.463 77.1402 115.35 77.15 115.234C77.1599 115.118 77.145 115.001 77.1066 114.891C76.8992 114.261 76.6349 113.652 76.3171 113.073L76.2508 112.953L70.4171 116.989L66.8131 118.045C66.6794 118.084 66.5559 118.153 66.4519 118.247C66.3479 118.342 66.266 118.459 66.2124 118.591C66.1381 118.773 66.1208 118.974 66.163 119.167C66.2052 119.36 66.3047 119.534 66.4479 119.667C67.1023 120.27 68.404 121.302 69.7674 121.431C70.1301 121.467 70.6108 121.479 71.1501 121.479L71.1517 121.48Z" fill="black"/>
<path d="M92.1589 98.2922L88.2006 101.646L92.8405 107.405L96.7988 104.051L92.1589 98.2922Z" fill="#FFE2B5"/>
<path d="M91.8045 114.146C93.5403 112.673 95.9256 110.337 95.9429 110.32C96.671 109.81 100.277 107.21 99.8044 106.272C99.4639 105.662 98.9854 105.144 98.4093 104.763C95.406 101.719 95.2567 101.785 95.1655 101.825C95.021 101.887 94.8178 102.335 94.5624 103.16L94.5476 103.21L94.5721 103.258C94.6064 103.318 95.3469 104.743 94.0498 105.528C93.1599 106.066 92.7628 106.104 92.6108 106.086C92.6651 105.976 92.6873 105.852 92.6747 105.729C92.6548 105.615 92.611 105.506 92.5463 105.41C92.4815 105.314 92.3974 105.233 92.2996 105.174C91.7482 104.824 91.1662 104.528 90.5611 104.289L90.4361 104.239L88.4506 111.162L86.3299 114.333C86.2513 114.45 86.1996 114.585 86.1783 114.726C86.1571 114.867 86.1669 115.011 86.2072 115.147C86.2634 115.336 86.3754 115.503 86.5278 115.624C86.6801 115.745 86.8652 115.815 87.0578 115.823C87.9354 115.861 89.5806 115.806 90.711 115.014C91.0099 114.803 91.3876 114.499 91.8043 114.147L91.8045 114.146Z" fill="black"/>
<path d="M67.663 51.8899L75.4889 111.582H81.3589L85.2711 51.8899H67.6611H67.663Z" fill="#0F2620"/>
<path d="M82.8244 84.4951L94.5116 100.045L89.5101 104.281L69.4528 84.7194L67.6606 51.8899L71.2475 55.1784L82.8244 84.4951Z" fill="#0F2620"/>
<path d="M71.2472 16.7761L67.6603 51.8907H85.2701L86.6358 40.4944C87.4768 33.4559 86.0768 26.3272 82.6444 20.1713L79.9425 15.3291L71.2464 16.7763L71.2472 16.7761Z" fill="#235C4E"/>
<path d="M69.6684 61.8685C69.9329 61.1643 70.3622 60.5377 70.9186 60.0438L73.2845 52.5815L76.8516 53.8608L74.069 61.2899C74.1442 62.038 74.0354 62.7934 73.7528 63.4873C73.0737 65.232 71.6068 66.2856 70.4822 65.838C69.3575 65.3905 68.994 63.6131 69.6731 61.8681H69.6682L69.6684 61.8685Z" fill="#FFE2B5"/>
<path d="M70.5828 58.5666L74.5128 60.6181L82.9687 44.5556V44.5282L84.0935 26.5601C84.1386 25.8182 84.035 25.0746 83.7891 24.3753C83.5431 23.676 83.1602 23.0357 82.6637 22.494C82.1673 21.9522 81.5679 21.5205 80.9026 21.2253C80.2372 20.9302 79.5199 20.778 78.795 20.778C78.0701 20.778 77.3528 20.9302 76.6874 21.2253C76.022 21.5205 75.4227 21.9522 74.9262 22.494C74.4298 23.0357 74.0468 23.676 73.8009 24.3753C73.555 25.0746 73.4514 25.8182 73.4964 26.5601L74.446 41.9891L70.582 58.5693L70.5828 58.5666Z" fill="#235C4E"/>
<path d="M0.00184014 121.48C-0.00567251 121.547 0.0126536 121.615 0.0529466 121.668C0.0932395 121.722 0.152343 121.758 0.217771 121.768H107.782C107.845 121.751 107.9 121.714 107.939 121.662C107.979 121.61 108 121.546 108 121.48C108 121.414 107.979 121.35 107.939 121.297C107.9 121.245 107.845 121.208 107.782 121.191H0.217581C0.152154 121.201 0.0930497 121.237 0.0527567 121.291C0.0124638 121.345 -0.00586232 121.412 0.00165033 121.48L0.00184014 121.48Z" fill="#F2F2F2"/>
<path d="M30.938 28.3565H25.9175V38.3502H30.938V28.3565Z" fill="#FFE2B5"/>
<path d="M39.2266 56.2051L27.1183 55.2966C27.1183 55.2966 22.0974 67.1074 25.937 74.6786L28.5958 90.4263L27.5 110.5L32.5 111.5L41.59 74.6786L39.2266 56.2051Z" fill="#235C4E"/>
<path d="M36.8637 69.4323L41.5886 73.6497L39.2266 114.955H33.9108L36.8637 69.4323Z" fill="#235C4E"/>
<path d="M28.3599 30.3212C31.8264 30.3212 34.6365 27.4396 34.6365 23.8849C34.6365 20.3302 31.8264 17.4485 28.3599 17.4485C24.8934 17.4485 22.0833 20.3302 22.0833 23.8849C22.0833 27.4396 24.8934 30.3212 28.3599 30.3212Z" fill="#FFE2B5"/>
<path d="M27.6081 110.193L34.0919 111.245L35.3106 116.014C35.3106 116.014 40.5751 118.046 38.0385 120.253C35.5018 122.461 26.131 121.319 25.3903 119.736C24.6496 118.152 27.6087 110.193 27.6087 110.193L27.6081 110.193Z" fill="black"/>
<path d="M32.9241 110.193L39.4079 111.244L40.6266 116.013C40.6266 116.013 45.8912 118.044 43.3545 120.252C40.8178 122.46 31.447 121.318 30.7063 119.735C29.9657 118.151 32.9249 110.192 32.9249 110.192L32.9241 110.193Z" fill="black"/>
<path d="M50.8363 55.1798C50.1393 55.1877 49.4507 55.0244 48.8279 54.7035L46.0522 54.6604L37.8679 54.8228L33.949 53.5102L35.0165 50.3511L45.7694 51.3178L48.8363 51.5246C49.4608 51.2067 50.1505 51.0468 50.8476 51.0586C52.5916 51.0629 54.0025 51.9893 54.0002 53.1272C53.9979 54.2651 52.5814 55.1841 50.8366 55.1796L50.8363 55.1798Z" fill="#FFE2B5"/>
<path d="M31.4006 32.1287H25.1867L23.1313 38.4883L27.1181 55.2959L39.2264 56.2043L38.488 49.3906C39.187 48.2258 39.5327 46.8744 39.4813 45.5078C39.4298 44.1412 38.9836 42.8211 38.1991 41.7151L31.4006 32.1287Z" fill="#DEDEDE"/>
<path d="M25.494 34.8539L31.9911 33.7102L36.715 49.0881L46.756 50.9053V55.2964C46.756 55.4483 33.0136 56.6597 32.6493 56.2049C32.2851 55.7502 25.4927 34.8547 25.4927 34.8547L25.494 34.8539Z" fill="#DEDEDE"/>
<path d="M31.4947 20.1532C32.2657 21.436 31.5549 23.1256 30.6049 24.2752C29.655 25.4248 28.4302 26.4341 28.0062 27.8768C27.6263 29.1703 27.9718 30.5643 28.419 31.8362C28.8663 33.1081 29.4221 34.3741 29.4683 35.7243C29.5144 37.0745 28.8906 38.5654 27.651 39.0213C26.3786 39.4887 24.8735 38.754 23.6479 39.3388C22.0513 40.1002 21.6893 42.7371 19.9485 43.0105C18.8772 43.1788 17.8844 42.2263 17.5851 41.1575C17.2858 40.0887 17.5006 38.9495 17.718 37.8605L19.4969 28.9097L20.9771 21.4623C21.2717 19.98 21.6213 18.3942 22.7074 17.3712C24.0347 16.1208 26.0356 16.091 27.8366 16.1659C29.4913 16.2347 31.2136 16.351 32.6533 17.1888C34.093 18.0266 35.152 19.8073 34.6529 21.4262C34.4013 20.8631 33.9587 20.413 33.4075 20.1597C32.8564 19.9063 32.2342 19.867 31.6568 20.049" fill="black"/>
</svg>
