<svg width="89" height="122" viewBox="0 0 89 122" fill="none" xmlns="http://www.w3.org/2000/svg">
<g clip-path="url(#clip0_137_314)">
<path d="M78.7792 121.803H40.0307C34.3945 121.803 29.8098 117.212 29.8098 111.568V10.2355C29.8098 4.5913 34.3945 0 40.0307 0H78.7792C84.4153 0 89 4.5913 89 10.2355V111.568C89 117.212 84.4153 121.803 78.7792 121.803Z" fill="#DADBDC"/>
<path d="M78.8072 119.032H40.0025C35.8311 119.032 32.4362 115.632 32.4362 111.455V10.1491C32.4362 5.9717 35.8311 2.57193 40.0025 2.57193H78.8072C82.9786 2.57193 86.3735 5.9717 86.3735 10.1491V111.455C86.3735 115.632 82.9786 119.032 78.8072 119.032Z" fill="white"/>
<path d="M64.8926 9.31521H53.9193C52.4706 9.31521 51.2928 8.13574 51.2928 6.68501C51.2928 5.23428 52.4706 4.05481 53.9193 4.05481H64.8926C66.3412 4.05481 67.519 5.23428 67.519 6.68501C67.519 8.13574 66.3412 9.31521 64.8926 9.31521Z" fill="#DADBDC"/>
<path d="M76.0905 40.2507H43.9813C43.3453 40.2507 42.8276 39.5917 42.8276 38.7839C42.8276 37.9762 43.3453 37.3171 43.9813 37.3171H76.0905C76.7266 37.3171 77.2442 37.9762 77.2442 38.7839C77.2442 39.5917 76.7266 40.2507 76.0905 40.2507Z" fill="#DADBDC"/>
<path d="M76.0905 46.7509H43.9813C43.3453 46.7509 42.8276 46.0918 42.8276 45.2841C42.8276 44.4763 43.3453 43.8173 43.9813 43.8173H76.0905C76.7266 43.8173 77.2442 44.4763 77.2442 45.2841C77.2442 46.0918 76.7266 46.7509 76.0905 46.7509Z" fill="#DADBDC"/>
<path d="M66.8829 53.2511H43.9813C43.3453 53.2511 42.8276 52.592 42.8276 51.7842C42.8276 50.9765 43.3453 50.3174 43.9813 50.3174H66.8829C67.519 50.3174 68.0366 50.9765 68.0366 51.7842C68.0366 52.592 67.519 53.2511 66.8829 53.2511Z" fill="#DADBDC"/>
<path d="M59.4049 91.4684C66.9745 91.4684 73.1109 85.3232 73.1109 77.7427C73.1109 70.1622 66.9745 64.017 59.4049 64.017C51.8353 64.017 45.6989 70.1622 45.6989 77.7427C45.6989 85.3232 51.8353 91.4684 59.4049 91.4684Z" fill="#235C4E"/>
<path d="M55.7592 78.028C56.4675 79.4164 57.1757 80.8069 57.884 82.1953C58.0867 82.5952 58.6826 82.4686 58.801 82.0748C59.7299 78.9724 61.4555 76.1453 63.781 73.8968C64.2465 73.4467 63.5362 72.7375 63.0707 73.1855C60.6228 75.5525 58.811 78.5444 57.8318 81.8075L58.7488 81.687C58.0405 80.2985 57.3322 78.9081 56.624 77.5196C56.331 76.943 55.4642 77.4513 55.7572 78.026H55.7592V78.028Z" fill="white"/>
<path d="M22.4561 61.1396L19.1335 62.2749L19.0813 57.4706L22.105 57.4365L22.4561 61.1396Z" fill="#FFE2B5"/>
<path d="M19.4706 58.7968C21.3057 58.7968 22.7933 57.307 22.7933 55.4693C22.7933 53.6317 21.3057 52.1419 19.4706 52.1419C17.6356 52.1419 16.1479 53.6317 16.1479 55.4693C16.1479 57.307 17.6356 58.7968 19.4706 58.7968Z" fill="#FFE2B5"/>
<path d="M20.3795 55.1298C19.8237 55.1197 19.4525 54.5611 19.2298 54.0488C19.0071 53.5384 18.7783 52.9497 18.2627 52.7427C17.8393 52.5739 17.109 53.7534 16.7719 53.446C16.4208 53.1245 16.7418 51.4487 17.107 51.1453C17.4721 50.8419 17.9757 50.7776 18.4493 50.7494C19.607 50.6831 20.7707 50.7635 21.9084 50.9886C22.6106 51.1272 23.337 51.3402 23.8486 51.8425C24.4967 52.4795 24.6713 53.45 24.7274 54.3582C24.7856 55.2865 24.7415 56.261 24.3001 57.0808C23.8566 57.8986 22.9196 58.5094 22.0107 58.3125C21.9144 57.8202 22.0007 57.3139 22.0308 56.8116C22.0609 56.3112 22.0167 55.7707 21.7077 55.3749C21.3987 54.9791 20.7446 54.8284 20.3935 55.186" fill="#2F2E43"/>
<path d="M24.4787 56.2369C24.8077 55.9898 25.203 55.7808 25.6123 55.827C26.0557 55.8752 26.4329 56.2369 26.5513 56.6669C26.6697 57.0969 26.5473 57.5731 26.2784 57.9288C26.0096 58.2844 25.6063 58.5215 25.1769 58.6421C24.9281 58.7124 24.6572 58.7425 24.4185 58.6421C24.0673 58.4954 23.8747 58.0513 24.0071 57.6937" fill="#2F2E43"/>
<path d="M12.1149 87.6727C11.9063 88.7678 12.3216 89.7624 13.0459 89.893C13.7683 90.0236 14.5247 89.24 14.7334 88.1449C14.8236 87.7089 14.8036 87.2568 14.6752 86.8288L17.2314 69.6672L13.7883 69.0584L12.6547 86.4651C12.3778 86.8208 12.1912 87.2347 12.1149 87.6747V87.6727Z" fill="#FFE2B5"/>
<path d="M19.0732 60.0707L16.7277 60.0968C15.0724 60.3661 14.631 61.2582 14.2738 62.8978C13.7261 65.3994 13.0278 68.7329 13.1743 68.7791C13.409 68.8554 17.4219 70.692 19.4525 70.2378L19.0732 60.0707Z" fill="#235C4E"/>
<path d="M21.9536 114.614L18.8318 114.649L18.8812 119.083L22.0031 119.048L21.9536 114.614Z" fill="#FFE2B5"/>
<path d="M15.863 121.803C15.5339 121.807 15.243 121.803 15.0223 121.785C14.1916 121.719 13.3951 121.114 12.9918 120.76C12.8112 120.602 12.751 120.344 12.8413 120.123C12.9055 119.965 13.0379 119.844 13.2024 119.794L15.3875 119.143L18.9088 116.705L18.9489 116.776C18.965 116.802 19.3201 117.427 19.4405 117.851C19.4866 118.011 19.4766 118.146 19.4104 118.251C19.3642 118.323 19.3 118.365 19.2479 118.391C19.3121 118.458 19.5147 118.592 20.1367 118.685C21.0416 118.819 21.2242 117.877 21.2302 117.837L21.2363 117.805L21.2623 117.786C21.6897 117.503 21.9526 117.375 22.0449 117.401C22.103 117.417 22.1974 117.445 22.4823 120.001C22.5084 120.081 22.695 120.668 22.5786 121.232C22.4522 121.847 19.7776 121.664 19.2439 121.622C19.2278 121.624 17.2294 121.789 15.859 121.803H15.863Z" fill="#2F2E43"/>
<path d="M30.804 111.023L28.1735 112.707L30.5587 116.444L33.1891 114.76L30.804 111.023Z" fill="#FFE2B5"/>
<path d="M27.39 121.066C27.0228 121.07 26.6858 121.03 26.445 120.989C26.2082 120.949 26.0216 120.764 25.9815 120.527C25.9514 120.356 26.0016 120.186 26.1139 120.057L27.6228 118.347L29.3222 114.413L29.3945 114.451C29.4205 114.465 30.0526 114.807 30.3796 115.102C30.504 115.215 30.5662 115.333 30.5662 115.458C30.5662 115.544 30.5341 115.614 30.502 115.663C30.5923 115.685 30.8351 115.691 31.4109 115.44C32.2496 115.074 31.9065 114.178 31.8905 114.142L31.8784 114.111L31.8925 114.083C32.1052 113.617 32.2617 113.368 32.352 113.34C32.4101 113.324 32.5044 113.296 34.0976 115.313C34.1618 115.367 34.6313 115.765 34.8299 116.306C35.0466 116.894 32.683 118.156 32.2055 118.403C32.1914 118.415 29.7215 120.254 28.7062 120.78C28.3029 120.989 27.8234 121.058 27.386 121.062L27.39 121.066Z" fill="#2F2E43"/>
<path d="M23.8346 77.4955L15.0945 77.592L14.3922 85.7418L18.1964 115.789L22.6588 115.739L20.6824 98.3824L28.0942 113.991L32.0289 111.166L26.2142 96.5821C26.2142 96.5821 28.0922 83.8008 26.471 80.6401C24.8498 77.4795 23.8366 77.4915 23.8366 77.4915V77.4955H23.8346Z" fill="#2F2E43"/>
<path d="M28.1866 77.9436L14.306 78.0983L18.2708 60.0807L24.3202 60.0124L28.1866 77.9436Z" fill="#235C4E"/>
<path d="M29.5429 87.4798C29.7757 88.5709 29.3824 89.5736 28.6621 89.7202C27.9418 89.8669 27.1693 89.1014 26.9366 88.0103C26.8362 87.5763 26.8463 87.1242 26.9647 86.6922L24.0272 69.5908L27.4562 68.9057L28.9751 86.2843C29.26 86.6339 29.4547 87.0438 29.5429 87.4819V87.4798Z" fill="#FFE2B5"/>
<path d="M21.9746 60.0385L24.3202 60.0124C25.9815 60.2455 26.441 61.1276 26.8363 62.7592C27.4382 65.2487 28.2107 68.5641 28.0662 68.6143C27.8315 68.6947 23.8627 70.6196 21.8221 70.2117L21.9766 60.0385H21.9746Z" fill="#235C4E"/>
<path d="M43.1547 121.803C43.1547 121.912 43.0664 122 42.958 122H0.196632C0.0882837 122 0 121.912 0 121.803C0 121.695 0.0882837 121.606 0.196632 121.606H42.958C43.0664 121.606 43.1547 121.695 43.1547 121.803Z" fill="#3F3D58"/>
</g>
<defs>
<clipPath id="clip0_137_314">
<rect width="89" height="122" fill="white"/>
</clipPath>
</defs>
</svg>
